<mxfile host="Electron" modified="2023-07-18T01:19:03.855Z" agent="Mozilla/5.0 (Windows NT 10.0; Win64; x64) AppleWebKit/537.36 (KHTML, like Gecko) draw.io/21.6.1 Chrome/112.0.5615.204 Electron/24.6.1 Safari/537.36" etag="1Z7buanQZqy1gkCoGYQy" version="21.6.1" type="device">
  <diagram name="Page-1" id="KSpULw9i7FZYPU_3jt3d">
    <mxGraphModel dx="1103" dy="643" grid="1" gridSize="10" guides="1" tooltips="1" connect="1" arrows="1" fold="1" page="1" pageScale="1" pageWidth="827" pageHeight="1169" math="0" shadow="0">
      <root>
        <mxCell id="0" />
        <mxCell id="1" parent="0" />
        <mxCell id="t4IQafupZAqnkSaoQNzX-5" value="`" style="rounded=1;whiteSpace=wrap;html=1;arcSize=0;fillColor=default;strokeColor=#FF8000;" parent="1" vertex="1">
          <mxGeometry x="180" y="300" width="860" height="590" as="geometry" />
        </mxCell>
        <mxCell id="t4IQafupZAqnkSaoQNzX-8" value="Region" style="rounded=0;whiteSpace=wrap;html=1;strokeColor=#0000FF;dashed=1;labelPosition=center;verticalLabelPosition=bottom;align=center;verticalAlign=top;fillColor=none;" parent="1" vertex="1">
          <mxGeometry x="370" y="380" width="620" height="470" as="geometry" />
        </mxCell>
        <mxCell id="t4IQafupZAqnkSaoQNzX-1" value="VPC" style="points=[[0,0],[0.25,0],[0.5,0],[0.75,0],[1,0],[1,0.25],[1,0.5],[1,0.75],[1,1],[0.75,1],[0.5,1],[0.25,1],[0,1],[0,0.75],[0,0.5],[0,0.25]];outlineConnect=0;gradientColor=none;html=1;whiteSpace=wrap;fontSize=12;fontStyle=0;container=0;pointerEvents=0;collapsible=0;recursiveResize=0;shape=mxgraph.aws4.group;grIcon=mxgraph.aws4.group_vpc;strokeColor=#248814;fillColor=none;verticalAlign=top;align=left;spacingLeft=30;fontColor=#AAB7B8;dashed=0;" parent="1" vertex="1">
          <mxGeometry x="340" y="340" width="680" height="540" as="geometry" />
        </mxCell>
        <mxCell id="t4IQafupZAqnkSaoQNzX-4" value="" style="outlineConnect=0;dashed=0;verticalLabelPosition=bottom;verticalAlign=top;align=center;html=1;shape=mxgraph.aws3.cloud_2;fillColor=#F58534;gradientColor=none;" parent="1" vertex="1">
          <mxGeometry x="180" y="300" width="35" height="40" as="geometry" />
        </mxCell>
        <mxCell id="vZjHdVINpLoHRK022o8P-4" style="edgeStyle=orthogonalEdgeStyle;rounded=0;orthogonalLoop=1;jettySize=auto;html=1;strokeColor=#00CC00;" edge="1" parent="1" source="t4IQafupZAqnkSaoQNzX-27" target="t4IQafupZAqnkSaoQNzX-17">
          <mxGeometry relative="1" as="geometry" />
        </mxCell>
        <mxCell id="vZjHdVINpLoHRK022o8P-7" value="Live Traffic&amp;nbsp;" style="edgeLabel;html=1;align=center;verticalAlign=middle;resizable=0;points=[];" vertex="1" connectable="0" parent="vZjHdVINpLoHRK022o8P-4">
          <mxGeometry x="-0.3019" y="-1" relative="1" as="geometry">
            <mxPoint as="offset" />
          </mxGeometry>
        </mxCell>
        <mxCell id="vZjHdVINpLoHRK022o8P-12" style="edgeStyle=orthogonalEdgeStyle;rounded=0;orthogonalLoop=1;jettySize=auto;html=1;" edge="1" parent="1" source="t4IQafupZAqnkSaoQNzX-27" target="vZjHdVINpLoHRK022o8P-2">
          <mxGeometry relative="1" as="geometry" />
        </mxCell>
        <mxCell id="vZjHdVINpLoHRK022o8P-19" style="edgeStyle=orthogonalEdgeStyle;rounded=1;orthogonalLoop=1;jettySize=auto;html=1;strokeColor=#00CC00;" edge="1" parent="1" source="t4IQafupZAqnkSaoQNzX-27" target="t4IQafupZAqnkSaoQNzX-14">
          <mxGeometry relative="1" as="geometry">
            <Array as="points">
              <mxPoint x="270" y="450" />
              <mxPoint x="270" y="540" />
              <mxPoint x="380" y="540" />
              <mxPoint x="380" y="690" />
            </Array>
          </mxGeometry>
        </mxCell>
        <mxCell id="vZjHdVINpLoHRK022o8P-24" value="Dev Traffic" style="edgeLabel;html=1;align=center;verticalAlign=middle;resizable=0;points=[];" vertex="1" connectable="0" parent="vZjHdVINpLoHRK022o8P-19">
          <mxGeometry x="-0.235" relative="1" as="geometry">
            <mxPoint as="offset" />
          </mxGeometry>
        </mxCell>
        <mxCell id="t4IQafupZAqnkSaoQNzX-27" value="Route 53" style="outlineConnect=0;dashed=0;verticalLabelPosition=top;verticalAlign=bottom;align=center;html=1;shape=mxgraph.aws3.route_53;fillColor=#F58536;gradientColor=none;labelPosition=center;" parent="1" vertex="1">
          <mxGeometry x="210" y="415" width="50" height="60" as="geometry" />
        </mxCell>
        <mxCell id="FMIIFAKphQF6v3F4pBgN-27" style="edgeStyle=orthogonalEdgeStyle;rounded=0;orthogonalLoop=1;jettySize=auto;html=1;startArrow=classic;startFill=1;strokeColor=#FF00FF;" parent="1" source="t4IQafupZAqnkSaoQNzX-21" target="t4IQafupZAqnkSaoQNzX-17" edge="1">
          <mxGeometry relative="1" as="geometry" />
        </mxCell>
        <mxCell id="vZjHdVINpLoHRK022o8P-17" value="Prod&lt;br&gt;Data Access" style="edgeLabel;html=1;align=center;verticalAlign=middle;resizable=0;points=[];" vertex="1" connectable="0" parent="FMIIFAKphQF6v3F4pBgN-27">
          <mxGeometry x="0.1356" y="-2" relative="1" as="geometry">
            <mxPoint as="offset" />
          </mxGeometry>
        </mxCell>
        <mxCell id="FMIIFAKphQF6v3F4pBgN-29" style="edgeStyle=orthogonalEdgeStyle;rounded=0;orthogonalLoop=1;jettySize=auto;html=1;strokeColor=#990000;" parent="1" source="t4IQafupZAqnkSaoQNzX-21" target="FMIIFAKphQF6v3F4pBgN-9" edge="1">
          <mxGeometry relative="1" as="geometry" />
        </mxCell>
        <mxCell id="FMIIFAKphQF6v3F4pBgN-30" value="Backup Snapshot" style="edgeLabel;html=1;align=center;verticalAlign=middle;resizable=0;points=[];" parent="FMIIFAKphQF6v3F4pBgN-29" vertex="1" connectable="0">
          <mxGeometry x="-0.5388" y="1" relative="1" as="geometry">
            <mxPoint x="53" y="1" as="offset" />
          </mxGeometry>
        </mxCell>
        <mxCell id="vZjHdVINpLoHRK022o8P-16" style="edgeStyle=orthogonalEdgeStyle;rounded=1;orthogonalLoop=1;jettySize=auto;html=1;startArrow=classic;startFill=1;strokeColor=#FF00FF;" edge="1" parent="1" source="t4IQafupZAqnkSaoQNzX-21" target="t4IQafupZAqnkSaoQNzX-14">
          <mxGeometry relative="1" as="geometry">
            <mxPoint x="553" y="619.2087628865979" as="targetPoint" />
            <Array as="points">
              <mxPoint x="553" y="460" />
              <mxPoint x="553" y="675" />
            </Array>
          </mxGeometry>
        </mxCell>
        <mxCell id="vZjHdVINpLoHRK022o8P-18" value="DEV&lt;br&gt;Data Access" style="edgeLabel;html=1;align=center;verticalAlign=middle;resizable=0;points=[];" vertex="1" connectable="0" parent="vZjHdVINpLoHRK022o8P-16">
          <mxGeometry x="0.0761" y="3" relative="1" as="geometry">
            <mxPoint x="-6" y="58" as="offset" />
          </mxGeometry>
        </mxCell>
        <mxCell id="t4IQafupZAqnkSaoQNzX-21" value="RDS&lt;br&gt;MySQL DB" style="outlineConnect=0;dashed=0;verticalLabelPosition=top;verticalAlign=bottom;align=center;html=1;shape=mxgraph.aws3.mysql_db_instance;fillColor=#2E73B8;gradientColor=none;labelPosition=center;" parent="1" vertex="1">
          <mxGeometry x="621" y="415" width="60" height="60" as="geometry" />
        </mxCell>
        <mxCell id="t4IQafupZAqnkSaoQNzX-17" value="Prod Ec2&amp;nbsp;&lt;br&gt;Instance" style="sketch=0;points=[[0,0,0],[0.25,0,0],[0.5,0,0],[0.75,0,0],[1,0,0],[0,1,0],[0.25,1,0],[0.5,1,0],[0.75,1,0],[1,1,0],[0,0.25,0],[0,0.5,0],[0,0.75,0],[1,0.25,0],[1,0.5,0],[1,0.75,0]];outlineConnect=0;fontColor=#232F3E;gradientColor=#F78E04;gradientDirection=north;fillColor=#D05C17;strokeColor=#ffffff;dashed=0;verticalLabelPosition=top;verticalAlign=bottom;align=center;html=1;fontSize=12;fontStyle=0;aspect=fixed;shape=mxgraph.aws4.resourceIcon;resIcon=mxgraph.aws4.ec2;labelPosition=center;" parent="1" vertex="1">
          <mxGeometry x="414" y="420.00000000000006" width="50" height="50" as="geometry" />
        </mxCell>
        <mxCell id="FMIIFAKphQF6v3F4pBgN-24" style="edgeStyle=orthogonalEdgeStyle;rounded=1;orthogonalLoop=1;jettySize=auto;html=1;strokeColor=#0000FF;" parent="1" source="t4IQafupZAqnkSaoQNzX-37" target="t4IQafupZAqnkSaoQNzX-17" edge="1">
          <mxGeometry relative="1" as="geometry" />
        </mxCell>
        <mxCell id="FMIIFAKphQF6v3F4pBgN-36" value="DB Credentials" style="edgeLabel;html=1;align=center;verticalAlign=middle;resizable=0;points=[];" parent="FMIIFAKphQF6v3F4pBgN-24" vertex="1" connectable="0">
          <mxGeometry x="-0.174" relative="1" as="geometry">
            <mxPoint as="offset" />
          </mxGeometry>
        </mxCell>
        <mxCell id="FMIIFAKphQF6v3F4pBgN-25" style="edgeStyle=orthogonalEdgeStyle;rounded=1;orthogonalLoop=1;jettySize=auto;html=1;fontColor=#0000FF;strokeColor=#0000FF;" parent="1" source="t4IQafupZAqnkSaoQNzX-37" target="t4IQafupZAqnkSaoQNzX-14" edge="1">
          <mxGeometry relative="1" as="geometry">
            <mxPoint x="570.3400000000001" y="686.4244845360824" as="targetPoint" />
            <Array as="points">
              <mxPoint x="651" y="690" />
            </Array>
          </mxGeometry>
        </mxCell>
        <mxCell id="FMIIFAKphQF6v3F4pBgN-37" value="DB Credentials" style="edgeLabel;html=1;align=center;verticalAlign=middle;resizable=0;points=[];" parent="FMIIFAKphQF6v3F4pBgN-25" vertex="1" connectable="0">
          <mxGeometry x="0.1123" y="1" relative="1" as="geometry">
            <mxPoint as="offset" />
          </mxGeometry>
        </mxCell>
        <mxCell id="FMIIFAKphQF6v3F4pBgN-26" style="edgeStyle=orthogonalEdgeStyle;rounded=0;orthogonalLoop=1;jettySize=auto;html=1;fontColor=#0000FF;strokeColor=#0000FF;" parent="1" source="t4IQafupZAqnkSaoQNzX-37" target="t4IQafupZAqnkSaoQNzX-21" edge="1">
          <mxGeometry relative="1" as="geometry" />
        </mxCell>
        <mxCell id="FMIIFAKphQF6v3F4pBgN-38" value="DB Credentials" style="edgeLabel;html=1;align=center;verticalAlign=middle;resizable=0;points=[];" parent="FMIIFAKphQF6v3F4pBgN-26" vertex="1" connectable="0">
          <mxGeometry x="0.0895" y="-2" relative="1" as="geometry">
            <mxPoint y="27" as="offset" />
          </mxGeometry>
        </mxCell>
        <mxCell id="vZjHdVINpLoHRK022o8P-28" style="edgeStyle=orthogonalEdgeStyle;rounded=1;orthogonalLoop=1;jettySize=auto;html=1;" edge="1" parent="1" source="FMIIFAKphQF6v3F4pBgN-1" target="t4IQafupZAqnkSaoQNzX-6">
          <mxGeometry relative="1" as="geometry" />
        </mxCell>
        <mxCell id="FMIIFAKphQF6v3F4pBgN-1" value="Wordpress AMI&amp;nbsp;" style="outlineConnect=0;dashed=0;verticalLabelPosition=bottom;verticalAlign=top;align=center;html=1;shape=mxgraph.aws3.ami;fillColor=#F58534;gradientColor=none;labelPosition=center;" parent="1" vertex="1">
          <mxGeometry x="810" y="690" width="40" height="40" as="geometry" />
        </mxCell>
        <mxCell id="FMIIFAKphQF6v3F4pBgN-32" style="edgeStyle=orthogonalEdgeStyle;rounded=0;orthogonalLoop=1;jettySize=auto;html=1;strokeColor=#ff6400;" parent="1" edge="1" target="t4IQafupZAqnkSaoQNzX-37">
          <mxGeometry relative="1" as="geometry">
            <mxPoint x="910" y="580.5" as="sourcePoint" />
            <mxPoint x="665" y="580.5" as="targetPoint" />
            <Array as="points">
              <mxPoint x="910" y="600" />
            </Array>
          </mxGeometry>
        </mxCell>
        <mxCell id="FMIIFAKphQF6v3F4pBgN-40" value="Create Secrets Manager" style="edgeLabel;html=1;align=center;verticalAlign=middle;resizable=0;points=[];" parent="FMIIFAKphQF6v3F4pBgN-32" vertex="1" connectable="0">
          <mxGeometry x="0.0776" y="1" relative="1" as="geometry">
            <mxPoint y="-1" as="offset" />
          </mxGeometry>
        </mxCell>
        <mxCell id="FMIIFAKphQF6v3F4pBgN-33" style="edgeStyle=orthogonalEdgeStyle;orthogonalLoop=1;jettySize=auto;html=1;strokeColor=#CC6600;rounded=1;" parent="1" source="t4IQafupZAqnkSaoQNzX-6" target="t4IQafupZAqnkSaoQNzX-21" edge="1">
          <mxGeometry relative="1" as="geometry">
            <Array as="points">
              <mxPoint x="800" y="560" />
              <mxPoint x="800" y="520" />
              <mxPoint x="660" y="520" />
            </Array>
          </mxGeometry>
        </mxCell>
        <mxCell id="FMIIFAKphQF6v3F4pBgN-42" value="Create DB Instance" style="edgeLabel;html=1;align=center;verticalAlign=middle;resizable=0;points=[];" parent="FMIIFAKphQF6v3F4pBgN-33" vertex="1" connectable="0">
          <mxGeometry x="0.1905" y="-4" relative="1" as="geometry">
            <mxPoint x="-24" y="4" as="offset" />
          </mxGeometry>
        </mxCell>
        <mxCell id="FMIIFAKphQF6v3F4pBgN-34" style="edgeStyle=orthogonalEdgeStyle;orthogonalLoop=1;jettySize=auto;html=1;strokeColor=#CC6600;rounded=1;" parent="1" source="t4IQafupZAqnkSaoQNzX-6" target="t4IQafupZAqnkSaoQNzX-17" edge="1">
          <mxGeometry relative="1" as="geometry">
            <Array as="points">
              <mxPoint x="460" y="570" />
            </Array>
          </mxGeometry>
        </mxCell>
        <mxCell id="FMIIFAKphQF6v3F4pBgN-41" value="Create Prod Ec2" style="edgeLabel;html=1;align=center;verticalAlign=middle;resizable=0;points=[];" parent="FMIIFAKphQF6v3F4pBgN-34" vertex="1" connectable="0">
          <mxGeometry x="-0.539" relative="1" as="geometry">
            <mxPoint as="offset" />
          </mxGeometry>
        </mxCell>
        <mxCell id="FMIIFAKphQF6v3F4pBgN-35" style="edgeStyle=orthogonalEdgeStyle;orthogonalLoop=1;jettySize=auto;html=1;strokeColor=#CC6600;rounded=1;" parent="1" target="t4IQafupZAqnkSaoQNzX-14" edge="1">
          <mxGeometry relative="1" as="geometry">
            <Array as="points">
              <mxPoint x="926" y="660" />
              <mxPoint x="736" y="660" />
              <mxPoint x="736" y="700" />
            </Array>
            <mxPoint x="926" y="604.4999999999999" as="sourcePoint" />
            <mxPoint x="480.0028051948052" y="700.0140845070423" as="targetPoint" />
          </mxGeometry>
        </mxCell>
        <mxCell id="FMIIFAKphQF6v3F4pBgN-39" value="Create DEV &lt;br&gt;ec2 instance" style="edgeLabel;html=1;align=center;verticalAlign=middle;resizable=0;points=[];" parent="FMIIFAKphQF6v3F4pBgN-35" vertex="1" connectable="0">
          <mxGeometry x="0.1166" y="1" relative="1" as="geometry">
            <mxPoint x="61" y="-41" as="offset" />
          </mxGeometry>
        </mxCell>
        <mxCell id="t4IQafupZAqnkSaoQNzX-6" value="Cloud Formation &lt;br&gt;Stack" style="sketch=0;points=[[0,0,0],[0.25,0,0],[0.5,0,0],[0.75,0,0],[1,0,0],[0,1,0],[0.25,1,0],[0.5,1,0],[0.75,1,0],[1,1,0],[0,0.25,0],[0,0.5,0],[0,0.75,0],[1,0.25,0],[1,0.5,0],[1,0.75,0]];points=[[0,0,0],[0.25,0,0],[0.5,0,0],[0.75,0,0],[1,0,0],[0,1,0],[0.25,1,0],[0.5,1,0],[0.75,1,0],[1,1,0],[0,0.25,0],[0,0.5,0],[0,0.75,0],[1,0.25,0],[1,0.5,0],[1,0.75,0]];outlineConnect=0;fontColor=#232F3E;gradientColor=#F34482;gradientDirection=north;fillColor=#BC1356;strokeColor=#ffffff;dashed=0;verticalLabelPosition=top;verticalAlign=bottom;align=center;html=1;fontSize=12;fontStyle=0;aspect=fixed;shape=mxgraph.aws4.resourceIcon;resIcon=mxgraph.aws4.cloudformation;direction=east;labelPosition=center;" parent="1" vertex="1">
          <mxGeometry x="910" y="555.5" width="49" height="49" as="geometry" />
        </mxCell>
        <mxCell id="FMIIFAKphQF6v3F4pBgN-9" value="" style="shadow=0;dashed=0;html=1;strokeColor=none;fillColor=#EF8F21;labelPosition=center;verticalLabelPosition=bottom;verticalAlign=top;align=center;outlineConnect=0;shape=mxgraph.veeam.2d.backup_from_storage_snapshots;" parent="1" vertex="1">
          <mxGeometry x="880" y="425.20000000000005" width="44.8" height="44.8" as="geometry" />
        </mxCell>
        <mxCell id="t4IQafupZAqnkSaoQNzX-37" value="Secrets Manager" style="sketch=0;points=[[0,0,0],[0.25,0,0],[0.5,0,0],[0.75,0,0],[1,0,0],[0,1,0],[0.25,1,0],[0.5,1,0],[0.75,1,0],[1,1,0],[0,0.25,0],[0,0.5,0],[0,0.75,0],[1,0.25,0],[1,0.5,0],[1,0.75,0]];outlineConnect=0;fontColor=#232F3E;gradientColor=#F54749;gradientDirection=north;fillColor=#C7131F;strokeColor=#ffffff;dashed=0;verticalLabelPosition=bottom;verticalAlign=top;align=center;html=1;fontSize=12;fontStyle=0;aspect=fixed;shape=mxgraph.aws4.resourceIcon;resIcon=mxgraph.aws4.secrets_manager;labelPosition=center;labelBackgroundColor=default;" parent="1" vertex="1">
          <mxGeometry x="631" y="580" width="40" height="40" as="geometry" />
        </mxCell>
        <mxCell id="vZjHdVINpLoHRK022o8P-14" style="edgeStyle=orthogonalEdgeStyle;rounded=0;orthogonalLoop=1;jettySize=auto;html=1;" edge="1" parent="1" source="vZjHdVINpLoHRK022o8P-1" target="vZjHdVINpLoHRK022o8P-3">
          <mxGeometry relative="1" as="geometry" />
        </mxCell>
        <mxCell id="vZjHdVINpLoHRK022o8P-1" value="Cloudwatch &lt;br&gt;Alarm" style="outlineConnect=0;dashed=0;verticalLabelPosition=middle;verticalAlign=middle;align=left;html=1;shape=mxgraph.aws3.cloudwatch;fillColor=#759C3E;gradientColor=none;labelPosition=right;" vertex="1" parent="1">
          <mxGeometry x="212.5" y="690" width="45" height="39.62" as="geometry" />
        </mxCell>
        <mxCell id="vZjHdVINpLoHRK022o8P-13" style="edgeStyle=orthogonalEdgeStyle;rounded=0;orthogonalLoop=1;jettySize=auto;html=1;" edge="1" parent="1" source="vZjHdVINpLoHRK022o8P-2" target="vZjHdVINpLoHRK022o8P-1">
          <mxGeometry relative="1" as="geometry" />
        </mxCell>
        <mxCell id="vZjHdVINpLoHRK022o8P-2" value="Health &lt;br&gt;Check" style="sketch=0;points=[[0,0,0],[0.25,0,0],[0.5,0,0],[0.75,0,0],[1,0,0],[0,1,0],[0.25,1,0],[0.5,1,0],[0.75,1,0],[1,1,0],[0,0.25,0],[0,0.5,0],[0,0.75,0],[1,0.25,0],[1,0.5,0],[1,0.75,0]];points=[[0,0,0],[0.25,0,0],[0.5,0,0],[0.75,0,0],[1,0,0],[0,1,0],[0.25,1,0],[0.5,1,0],[0.75,1,0],[1,1,0],[0,0.25,0],[0,0.5,0],[0,0.75,0],[1,0.25,0],[1,0.5,0],[1,0.75,0]];outlineConnect=0;fontColor=#232F3E;gradientColor=#F34482;gradientDirection=north;fillColor=#BC1356;strokeColor=#ffffff;dashed=0;verticalLabelPosition=middle;verticalAlign=middle;align=left;html=1;fontSize=12;fontStyle=0;aspect=fixed;shape=mxgraph.aws4.resourceIcon;resIcon=mxgraph.aws4.personal_health_dashboard;labelPosition=right;" vertex="1" parent="1">
          <mxGeometry x="217.5" y="585" width="35" height="35" as="geometry" />
        </mxCell>
        <mxCell id="vZjHdVINpLoHRK022o8P-3" value="SNS" style="sketch=0;points=[[0,0,0],[0.25,0,0],[0.5,0,0],[0.75,0,0],[1,0,0],[0,1,0],[0.25,1,0],[0.5,1,0],[0.75,1,0],[1,1,0],[0,0.25,0],[0,0.5,0],[0,0.75,0],[1,0.25,0],[1,0.5,0],[1,0.75,0]];outlineConnect=0;fontColor=#232F3E;gradientColor=#FF4F8B;gradientDirection=north;fillColor=#BC1356;strokeColor=#ffffff;dashed=0;verticalLabelPosition=middle;verticalAlign=middle;align=left;html=1;fontSize=12;fontStyle=0;aspect=fixed;shape=mxgraph.aws4.resourceIcon;resIcon=mxgraph.aws4.sns;labelPosition=right;" vertex="1" parent="1">
          <mxGeometry x="215.5" y="780" width="39" height="39" as="geometry" />
        </mxCell>
        <mxCell id="vZjHdVINpLoHRK022o8P-21" style="edgeStyle=orthogonalEdgeStyle;rounded=0;orthogonalLoop=1;jettySize=auto;html=1;strokeColor=#990000;" edge="1" parent="1" source="t4IQafupZAqnkSaoQNzX-14" target="FMIIFAKphQF6v3F4pBgN-1">
          <mxGeometry relative="1" as="geometry">
            <Array as="points">
              <mxPoint x="510" y="710" />
              <mxPoint x="510" y="710" />
            </Array>
          </mxGeometry>
        </mxCell>
        <mxCell id="vZjHdVINpLoHRK022o8P-22" value="Backup For DEV to Prod Migration" style="edgeLabel;html=1;align=center;verticalAlign=middle;resizable=0;points=[];" vertex="1" connectable="0" parent="vZjHdVINpLoHRK022o8P-21">
          <mxGeometry x="0.5979" y="3" relative="1" as="geometry">
            <mxPoint x="-51" y="3" as="offset" />
          </mxGeometry>
        </mxCell>
        <mxCell id="vZjHdVINpLoHRK022o8P-25" style="edgeStyle=orthogonalEdgeStyle;rounded=0;orthogonalLoop=1;jettySize=auto;html=1;startArrow=classic;startFill=1;endArrow=none;endFill=0;" edge="1" parent="1" source="t4IQafupZAqnkSaoQNzX-14" target="vZjHdVINpLoHRK022o8P-23">
          <mxGeometry relative="1" as="geometry" />
        </mxCell>
        <mxCell id="t4IQafupZAqnkSaoQNzX-14" value="Dev EC2 &lt;br&gt;Instance" style="sketch=0;points=[[0,0,0],[0.25,0,0],[0.5,0,0],[0.75,0,0],[1,0,0],[0,1,0],[0.25,1,0],[0.5,1,0],[0.75,1,0],[1,1,0],[0,0.25,0],[0,0.5,0],[0,0.75,0],[1,0.25,0],[1,0.5,0],[1,0.75,0]];outlineConnect=0;fontColor=#232F3E;gradientColor=#F78E04;gradientDirection=north;fillColor=#D05C17;strokeColor=#ffffff;dashed=0;verticalLabelPosition=top;verticalAlign=bottom;align=center;html=1;fontSize=12;fontStyle=0;aspect=fixed;shape=mxgraph.aws4.resourceIcon;resIcon=mxgraph.aws4.ec2;labelPosition=center;" parent="1" vertex="1">
          <mxGeometry x="414.0028051948052" y="669.9954838709677" width="50" height="50" as="geometry" />
        </mxCell>
        <mxCell id="vZjHdVINpLoHRK022o8P-23" value="AWS Lambda" style="sketch=0;points=[[0,0,0],[0.25,0,0],[0.5,0,0],[0.75,0,0],[1,0,0],[0,1,0],[0.25,1,0],[0.5,1,0],[0.75,1,0],[1,1,0],[0,0.25,0],[0,0.5,0],[0,0.75,0],[1,0.25,0],[1,0.5,0],[1,0.75,0]];outlineConnect=0;fontColor=#232F3E;gradientColor=#F78E04;gradientDirection=north;fillColor=#D05C17;strokeColor=#ffffff;dashed=0;verticalLabelPosition=bottom;verticalAlign=top;align=center;html=1;fontSize=12;fontStyle=0;aspect=fixed;shape=mxgraph.aws4.resourceIcon;resIcon=mxgraph.aws4.lambda;" vertex="1" parent="1">
          <mxGeometry x="419" y="779" width="40" height="40" as="geometry" />
        </mxCell>
        <mxCell id="vZjHdVINpLoHRK022o8P-26" style="edgeStyle=orthogonalEdgeStyle;orthogonalLoop=1;jettySize=auto;html=1;strokeColor=#CC6600;rounded=1;" edge="1" parent="1" target="vZjHdVINpLoHRK022o8P-30">
          <mxGeometry relative="1" as="geometry">
            <Array as="points">
              <mxPoint x="955" y="800" />
            </Array>
            <mxPoint x="954.8032558139535" y="604.5000000000001" as="sourcePoint" />
            <mxPoint x="482.77999999999986" y="800.0140845070423" as="targetPoint" />
          </mxGeometry>
        </mxCell>
        <mxCell id="vZjHdVINpLoHRK022o8P-27" value="Create Alarm at&amp;nbsp;&lt;br&gt;business hours (9AM-6M)" style="edgeLabel;html=1;align=center;verticalAlign=middle;resizable=0;points=[];" vertex="1" connectable="0" parent="vZjHdVINpLoHRK022o8P-26">
          <mxGeometry x="0.1166" y="1" relative="1" as="geometry">
            <mxPoint x="-60" y="-1" as="offset" />
          </mxGeometry>
        </mxCell>
        <mxCell id="vZjHdVINpLoHRK022o8P-31" style="edgeStyle=orthogonalEdgeStyle;rounded=0;orthogonalLoop=1;jettySize=auto;html=1;" edge="1" parent="1" source="vZjHdVINpLoHRK022o8P-30" target="vZjHdVINpLoHRK022o8P-23">
          <mxGeometry relative="1" as="geometry" />
        </mxCell>
        <mxCell id="vZjHdVINpLoHRK022o8P-32" value="Trigger Lambda to Start &amp;amp; Stop&lt;br&gt;Dev Instance" style="edgeLabel;html=1;align=center;verticalAlign=middle;resizable=0;points=[];" vertex="1" connectable="0" parent="vZjHdVINpLoHRK022o8P-31">
          <mxGeometry x="-0.0519" relative="1" as="geometry">
            <mxPoint as="offset" />
          </mxGeometry>
        </mxCell>
        <mxCell id="vZjHdVINpLoHRK022o8P-30" value="Cloudwatch Alarm" style="outlineConnect=0;dashed=0;verticalLabelPosition=bottom;verticalAlign=top;align=center;html=1;shape=mxgraph.aws3.cloudwatch;fillColor=#759C3E;gradientColor=none;labelPosition=center;" vertex="1" parent="1">
          <mxGeometry x="710" y="774" width="50" height="45" as="geometry" />
        </mxCell>
      </root>
    </mxGraphModel>
  </diagram>
</mxfile>
